<?xml version="1.0" encoding="UTF-8"?>
<svg id="Warstwa_1" xmlns="http://www.w3.org/2000/svg" version="1.1" viewBox="0 0 1000 1000">
  <!-- Generator: Adobe Illustrator 29.7.1, SVG Export Plug-In . SVG Version: 2.1.1 Build 8)  -->
  <defs>
    <style>
      .st0 {
        fill: #fff;
      }
    </style>
  </defs>
  <polygon class="st0" points="674.24 248.76 675.85 347.56 535.9 487.51 535.9 642.87 753.53 425.24 852.33 426.85 535.9 743.28 535.9 898.65 1000 434.54 905.41 339.95 770.73 330.36 761.14 195.68 666.81 101.35 535.9 232.27 535.9 387.1 674.24 248.76"/>
  <polygon class="st0" points="147.41 427.11 246.2 425.5 463.84 643.14 463.84 487.77 323.89 347.82 325.49 249.02 463.84 387.36 463.84 232 333.19 101.35 238.6 195.95 229.01 330.63 94.33 340.21 0 434.54 463.84 898.38 463.84 743.54 147.41 427.11"/>
</svg>